<svg width="75" height="75" viewBox="0 0 75 75" fill="none" xmlns="http://www.w3.org/2000/svg">
<rect width="75" height="75" rx="15" fill="white"/>
<rect width="75" height="75" rx="15" fill="url(#paint0_linear)"/>
<path d="M61.8056 46.553C61.8054 45.3251 61.5018 44.1163 60.9219 43.0339C60.3421 41.9516 59.5038 41.0293 58.4816 40.3489C59.3225 39.5282 59.8998 38.4754 60.1395 37.3251C60.3793 36.1748 60.2707 34.9791 59.8276 33.8907C59.3846 32.8024 58.6271 31.8709 57.6521 31.2151C56.6771 30.5593 55.5287 30.209 54.3536 30.209C53.1786 30.209 52.0302 30.5593 51.0552 31.2151C50.0801 31.8709 49.3227 32.8024 48.8797 33.8907C48.4366 34.9791 48.328 36.1748 48.5678 37.3251C48.8075 38.4754 49.3848 39.5282 50.2257 40.3489C48.9514 41.1967 47.969 42.4163 47.4122 43.842C46.8554 45.2677 46.7512 46.8303 47.1136 48.3174C47.4761 49.8044 48.2877 51.1437 49.4381 52.1533C50.5885 53.1629 52.0219 53.7937 53.5434 53.96V56.9419H52.0834V56.1317C52.0834 55.9168 51.998 55.7108 51.8461 55.5588C51.6941 55.4069 51.488 55.3215 51.2732 55.3215C51.0583 55.3215 50.8522 55.4069 50.7003 55.5588C50.5483 55.7108 50.463 55.9168 50.463 56.1317V56.9419C50.2481 56.9419 50.042 57.0273 49.8901 57.1792C49.7382 57.3311 49.6528 57.5372 49.6528 57.7521C49.6528 57.967 49.7382 58.173 49.8901 58.325C50.042 58.4769 50.2481 58.5623 50.463 58.5623V60.1826H44.7917V58.5623H45.6019C45.8167 58.5623 46.0228 58.4769 46.1748 58.325C46.3267 58.173 46.4121 57.967 46.4121 57.7521V54.5113C46.4121 54.2965 46.3267 54.0904 46.1748 53.9385C46.0228 53.7865 45.8167 53.7012 45.6019 53.7012H42.3611V52.0808H44.7917C45.0066 52.0808 45.2126 51.9954 45.3646 51.8435C45.5165 51.6915 45.6019 51.4855 45.6019 51.2706V48.0299C45.6019 47.815 45.5165 47.6089 45.3646 47.457C45.2126 47.305 45.0066 47.2197 44.7917 47.2197H30.2083C29.9935 47.2197 29.7874 47.305 29.6355 47.457C29.4835 47.6089 29.3982 47.815 29.3982 48.0299V51.2706C29.3982 51.4855 29.4835 51.6915 29.6355 51.8435C29.7874 51.9954 29.9935 52.0808 30.2083 52.0808H32.6389V53.7012H29.3982C29.1833 53.7012 28.9772 53.7865 28.8253 53.9385C28.6733 54.0904 28.588 54.2965 28.588 54.5113V57.7521C28.588 57.967 28.6733 58.173 28.8253 58.325C28.9772 58.4769 29.1833 58.5623 29.3982 58.5623H30.2083V60.1826H27.1951L27.7536 57.9486C27.7834 57.8291 27.7857 57.7044 27.7601 57.584C27.7346 57.4636 27.6819 57.3505 27.6062 57.2535C27.5304 57.1564 27.4335 57.0779 27.3229 57.024C27.2122 56.97 27.0907 56.9419 26.9676 56.9419H22.9167C22.7936 56.9419 22.6721 56.97 22.5614 57.024C22.4508 57.0779 22.3539 57.1564 22.2781 57.2535C22.2023 57.3505 22.1497 57.4636 22.1241 57.584C22.0986 57.7044 22.1008 57.8291 22.1307 57.9486L22.6892 60.1826H20.4861V54.7627C21.7857 54.5992 23.0052 54.0457 23.9839 53.1752C24.9626 52.3047 25.6545 51.1581 25.9685 49.8865C26.2824 48.6149 26.2037 47.278 25.7426 46.052C25.2815 44.826 24.4598 43.7685 23.3857 43.019C24.0916 42.2903 24.5672 41.3698 24.7533 40.3725C24.9393 39.3752 24.8275 38.3451 24.4319 37.4109C24.0362 36.4767 23.3741 35.6798 22.5283 35.1195C21.6825 34.5592 20.6905 34.2604 19.6759 34.2604C18.6614 34.2604 17.6693 34.5592 16.8235 35.1195C15.9778 35.6798 15.3157 36.4767 14.92 37.4109C14.5243 38.3451 14.4125 39.3752 14.5986 40.3725C14.7847 41.3698 15.2603 42.2903 15.9662 43.019C14.8921 43.7685 14.0703 44.826 13.6093 46.052C13.1482 47.278 13.0695 48.6149 13.3834 49.8865C13.6974 51.1581 14.3893 52.3047 15.368 53.1752C16.3467 54.0457 17.5662 54.5992 18.8658 54.7627V60.1826H14.0046C13.7898 60.1826 13.5837 60.268 13.4318 60.4199C13.2798 60.5719 13.1945 60.7779 13.1945 60.9928C13.1945 61.2077 13.2798 61.4138 13.4318 61.5657C13.5837 61.7176 13.7898 61.803 14.0046 61.803H60.9954C61.2103 61.803 61.4163 61.7176 61.5683 61.5657C61.7202 61.4138 61.8056 61.2077 61.8056 60.9928C61.8056 60.7779 61.7202 60.5719 61.5683 60.4199C61.4163 60.268 61.2103 60.1826 60.9954 60.1826H58.5648V58.5623C58.7797 58.5623 58.9858 58.4769 59.1377 58.325C59.2897 58.173 59.375 57.967 59.375 57.7521C59.375 57.5372 59.2897 57.3311 59.1377 57.1792C58.9858 57.0273 58.7797 56.9419 58.5648 56.9419V56.1317C58.5648 55.9168 58.4795 55.7108 58.3275 55.5588C58.1756 55.4069 57.9695 55.3215 57.7546 55.3215C57.5398 55.3215 57.3337 55.4069 57.1818 55.5588C57.0298 55.7108 56.9445 55.9168 56.9445 56.1317V56.9419H55.1638V53.9601C56.988 53.7584 58.6739 52.8914 59.8992 51.525C61.1245 50.1585 61.8032 48.3884 61.8056 46.553ZM42.3611 48.84H43.9815V50.4604H42.3611V48.84ZM19.6759 37.4975C19.4611 37.4975 19.255 37.5828 19.1031 37.7348C18.9511 37.8867 18.8658 38.0928 18.8658 38.3076V47.6942L17.8183 46.6468C17.7431 46.5715 17.6537 46.5119 17.5554 46.4711C17.4571 46.4304 17.3518 46.4095 17.2454 46.4095C17.139 46.4095 17.0336 46.4304 16.9353 46.4711C16.837 46.5119 16.7477 46.5715 16.6725 46.6468C16.5972 46.722 16.5376 46.8113 16.4969 46.9096C16.4561 47.0079 16.4352 47.1133 16.4352 47.2197C16.4352 47.3261 16.4561 47.4314 16.4969 47.5297C16.5376 47.628 16.5972 47.7173 16.6725 47.7926L18.8658 49.9858V53.126C17.8339 52.9512 16.8861 52.4481 16.1631 51.6914C15.4401 50.9348 14.9807 49.965 14.853 48.9264C14.7253 47.8877 14.9362 46.8355 15.4544 45.9263C15.9726 45.017 16.7703 44.2993 17.7291 43.8798C17.8647 43.8204 17.9814 43.725 18.0667 43.6039C18.1519 43.4829 18.2023 43.3408 18.2124 43.1931C18.2226 43.0454 18.192 42.8977 18.1242 42.7661C18.0563 42.6346 17.9536 42.5241 17.8274 42.4468C17.1681 42.0438 16.6586 41.4364 16.3763 40.7171C16.0941 39.9979 16.0546 39.206 16.2639 38.4622C16.4732 37.7184 16.9198 37.0634 17.5358 36.5969C18.1517 36.1303 18.9033 35.8778 19.6759 35.8778C20.4486 35.8778 21.2002 36.1303 21.8161 36.5969C22.432 37.0634 22.8787 37.7184 23.088 38.4622C23.2973 39.206 23.2578 39.9979 22.9756 40.7171C22.6933 41.4364 22.1838 42.0438 21.5245 42.4468C21.3982 42.5241 21.2956 42.6346 21.2277 42.7661C21.1598 42.8977 21.1293 43.0454 21.1394 43.1931C21.1496 43.3408 21.2 43.4829 21.2852 43.6039C21.3704 43.725 21.4872 43.8204 21.6228 43.8798C22.5816 44.2993 23.3793 45.017 23.8975 45.9263C24.4157 46.8355 24.6266 47.8877 24.4989 48.9264C24.3712 49.965 23.9117 50.9348 23.1888 51.6914C22.4658 52.4481 21.5179 52.9512 20.4861 53.126V41.2389L21.6587 40.6526C21.7547 40.6055 21.8404 40.5399 21.9109 40.4596C21.9815 40.3792 22.0354 40.2856 22.0696 40.1843C22.1038 40.083 22.1176 39.976 22.1102 39.8693C22.1028 39.7626 22.0744 39.6585 22.0266 39.5628C21.9788 39.4672 21.9125 39.382 21.8316 39.3121C21.7506 39.2422 21.6567 39.189 21.5551 39.1556C21.4535 39.1222 21.3464 39.1092 21.2398 39.1174C21.1331 39.1256 21.0292 39.1548 20.934 39.2034L20.4861 39.4273V38.3076C20.4861 38.0928 20.4008 37.8867 20.2488 37.7348C20.0969 37.5828 19.8908 37.4975 19.6759 37.4975V37.4975ZM25.5249 60.1826H24.3594L23.9543 58.5623H25.93L25.5249 60.1826ZM34.2593 48.84H40.7408V50.4604H34.2593V48.84ZM34.2593 52.0808H40.7408V53.7012H34.2593V52.0808ZM31.0185 50.4604V48.84H32.6389V50.4604H31.0185ZM30.2083 55.3215H44.7917V56.9419H30.2083V55.3215ZM43.1713 60.1826H31.8287V58.5623H43.1713V60.1826ZM53.5434 60.1826H52.0834V58.5623H53.5434V60.1826ZM56.9445 58.5623V60.1826H55.1638V58.5623H56.9445ZM54.3536 33.4465C54.1387 33.4465 53.9326 33.5319 53.7807 33.6838C53.6288 33.8358 53.5434 34.0418 53.5434 34.2567V46.8841L52.4959 45.8366C52.344 45.6846 52.1379 45.5993 51.923 45.5993C51.7082 45.5993 51.5021 45.6846 51.3501 45.8366C51.1982 45.9885 51.1128 46.1946 51.1128 46.4095C51.1128 46.6244 51.1982 46.8305 51.3501 46.9824L53.5434 49.1757V52.3271C52.2859 52.1508 51.1203 51.5688 50.2238 50.6696C49.3272 49.7704 48.7487 48.6031 48.576 47.3451C48.4034 46.0871 48.6462 44.8071 49.2674 43.6997C49.8886 42.5922 50.8544 41.7178 52.0179 41.2093C52.1535 41.1499 52.2703 41.0546 52.3555 40.9335C52.4407 40.8125 52.4911 40.6704 52.5013 40.5227C52.5114 40.375 52.4809 40.2274 52.413 40.0958C52.3452 39.9642 52.2426 39.8538 52.1164 39.7764C51.3185 39.2887 50.7018 38.5537 50.3603 37.6831C50.0187 36.8126 49.9709 35.8544 50.2243 34.9542C50.4776 34.0541 51.0181 33.2613 51.7635 32.6967C52.509 32.1321 53.4185 31.8265 54.3536 31.8265C55.2887 31.8265 56.1982 32.1321 56.9437 32.6967C57.6891 33.2613 58.2296 34.0541 58.4829 34.9542C58.7362 35.8544 58.6885 36.8126 58.3469 37.6831C58.0054 38.5537 57.3887 39.2887 56.5908 39.7764C56.4646 39.8538 56.362 39.9642 56.2941 40.0958C56.2263 40.2274 56.1958 40.375 56.2059 40.5227C56.2161 40.6704 56.2665 40.8125 56.3517 40.9335C56.4369 41.0546 56.5537 41.1499 56.6893 41.2093C57.8528 41.7178 58.8185 42.5922 59.4398 43.6997C60.061 44.8071 60.3038 46.0871 60.1311 47.3451C59.9585 48.6031 59.38 49.7704 58.4834 50.6696C57.5869 51.5688 56.4213 52.1508 55.1638 52.3271V37.9982L56.3368 37.4119C56.4328 37.3648 56.5186 37.2992 56.5891 37.2188C56.6596 37.1384 56.7135 37.0449 56.7477 36.9436C56.7819 36.8423 56.7957 36.7352 56.7884 36.6285C56.781 36.5219 56.7526 36.4177 56.7047 36.3221C56.6569 36.2264 56.5906 36.1412 56.5097 36.0713C56.4288 36.0014 56.3349 35.9482 56.2333 35.9148C56.1317 35.8814 56.0245 35.8684 55.9179 35.8767C55.8113 35.8849 55.7074 35.9141 55.6121 35.9627L55.1643 36.1866V34.2567C55.1643 34.1503 55.1433 34.0449 55.1026 33.9466C55.0618 33.8482 55.0021 33.7589 54.9268 33.6836C54.8515 33.6084 54.7621 33.5487 54.6638 33.5081C54.5654 33.4674 54.46 33.4465 54.3536 33.4465Z" fill="url(#paint1_linear)"/>
<path d="M23.4452 26.9997C22.8735 26.9245 22.2924 26.9723 21.7407 27.1398C21.1889 27.3072 20.6793 27.5905 20.2458 27.9707C19.8123 28.3509 19.465 28.8192 19.227 29.3444C18.989 29.8695 18.8658 30.4395 18.8657 31.016C18.8657 31.2309 18.9511 31.437 19.103 31.5889C19.255 31.7409 19.461 31.8262 19.6759 31.8262H28.5902C28.0621 32.5264 27.7768 33.3798 27.7778 34.2568C27.7778 34.4717 27.8631 34.6777 28.0151 34.8297C28.167 34.9816 28.3731 35.067 28.5879 35.067H42.0845C42.2521 35.0669 42.4155 35.015 42.5523 34.9183C42.689 34.8215 42.7925 34.6847 42.8483 34.5268C43.2514 33.3797 43.2757 32.1335 42.9175 30.9716C42.5594 29.8097 41.8378 28.7934 40.8589 28.0723C39.88 27.3512 38.6955 26.9633 37.4796 26.9657C36.2638 26.9682 35.0808 27.3608 34.1048 28.0858C33.8325 26.9398 33.2102 25.9071 32.3242 25.1308C31.4383 24.3546 30.3327 23.8734 29.1609 23.7541C27.9891 23.6347 26.8091 23.8831 25.7849 24.4648C24.7607 25.0465 23.9429 25.9326 23.4452 27.0002V26.9997ZM33.2282 31.906C33.3242 31.857 33.4095 31.7894 33.4791 31.707C33.5487 31.6246 33.6011 31.5291 33.6333 31.4262C33.7359 31.0977 33.8797 30.7836 34.0611 30.4911C34.0854 30.4587 34.1072 30.4244 34.1263 30.3887C34.6091 29.6656 35.3116 29.1169 36.1301 28.8237C36.9486 28.5304 37.8397 28.5081 38.6719 28.76C39.504 29.012 40.2331 29.5248 40.7516 30.2228C41.27 30.9208 41.5502 31.767 41.5509 32.6364C41.551 32.9085 41.5239 33.1799 41.4699 33.4466H29.537C29.7496 32.8452 30.1901 32.3516 30.7635 32.0721C31.3368 31.7926 31.9971 31.7497 32.6018 31.9526C32.704 31.9869 32.8121 32.0004 32.9196 31.9925C33.0271 31.9845 33.132 31.9551 33.228 31.906H33.2282ZM28.5879 25.3448C29.6619 25.346 30.6916 25.7731 31.451 26.5326C32.2105 27.292 32.6377 28.3217 32.6389 29.3957C32.6389 29.509 32.6324 29.6226 32.623 29.7357C32.526 29.8994 32.4372 30.0678 32.3571 30.2404C32.1819 30.2174 32.0054 30.2058 31.8287 30.2059H20.6249C20.8378 29.6044 21.2785 29.1107 21.852 28.8312C22.4255 28.5517 23.0858 28.5088 23.6907 28.7118C23.7929 28.7459 23.9008 28.7594 24.0082 28.7513C24.1157 28.7432 24.2204 28.7138 24.3163 28.6648C24.4123 28.6157 24.4974 28.5481 24.5669 28.4657C24.6363 28.3834 24.6887 28.288 24.7208 28.1852C24.9763 27.3601 25.49 26.6388 26.1861 26.1274C26.8823 25.6161 27.7242 25.3418 28.5879 25.3448V25.3448Z" fill="url(#paint2_linear)"/>
<path d="M57.6394 27.4207C57.8147 27.4207 57.9853 27.3639 58.1255 27.2587C58.2657 27.1535 58.3681 27.0057 58.4172 26.8375C58.6654 25.9865 58.5996 25.0747 58.2318 24.2682C57.8641 23.4617 57.2188 22.8141 56.4136 22.4435C55.6084 22.0728 54.6969 22.0038 53.845 22.2489C52.9932 22.4941 52.2578 23.0371 51.7728 23.779C51.7245 23.7766 51.6761 23.7753 51.6276 23.7753C50.8758 23.7761 50.1551 24.0751 49.6235 24.6067C49.0919 25.1383 48.7928 25.8591 48.792 26.6109C48.792 26.8258 48.8774 27.0319 49.0293 27.1838C49.1812 27.3357 49.3873 27.4211 49.6022 27.4211L57.6394 27.4207ZM51.6276 25.3952C51.7464 25.3954 51.8645 25.4129 51.9781 25.4472C52.1691 25.5046 52.3746 25.4895 52.5552 25.4049C52.7358 25.3202 52.8788 25.1719 52.9568 24.9884C53.1438 24.5474 53.4774 24.1845 53.9013 23.9614C54.3252 23.7382 54.8132 23.6686 55.2826 23.7641C55.752 23.8597 56.1739 24.1147 56.4768 24.4858C56.7797 24.8569 56.9449 25.3213 56.9445 25.8003H50.7226C50.8364 25.6728 50.9758 25.5708 51.1318 25.501C51.2878 25.4312 51.4567 25.3952 51.6276 25.3952V25.3952Z" fill="url(#paint3_linear)"/>
<path d="M33.9601 20.1379C33.571 20.8383 33.3983 21.6383 33.4639 22.4368C33.5295 23.2353 33.8304 23.9964 34.3286 24.6239C34.8267 25.2514 35.4998 25.7171 36.2626 25.9621C37.0254 26.2071 37.8438 26.2203 38.6142 26.0002C39.3845 25.7801 40.0723 25.3365 40.5906 24.7255C41.1088 24.1145 41.4343 23.3635 41.5257 22.5676C41.6172 21.7716 41.4705 20.9664 41.1043 20.2538C40.7382 19.5411 40.1689 18.9531 39.4685 18.564C38.5291 18.0435 37.4215 17.9169 36.3889 18.212C35.3562 18.507 34.4827 19.1997 33.9601 20.1379V20.1379ZM35.3765 20.9247C35.61 20.5045 35.9628 20.1629 36.3904 19.9432C36.818 19.7236 37.3011 19.6356 37.7786 19.6905C38.2562 19.7454 38.7068 19.9406 39.0734 20.2516C39.44 20.5626 39.7061 20.9752 39.8382 21.4375C39.9702 21.8997 39.9623 22.3907 39.8153 22.8484C39.6683 23.3061 39.3889 23.7099 39.0124 24.0088C38.6359 24.3077 38.1792 24.4882 37.7001 24.5275C37.221 24.5669 36.741 24.4633 36.3208 24.2298C35.7576 23.9164 35.3419 23.3923 35.1649 22.7726C34.9879 22.1529 35.064 21.4883 35.3765 20.9247Z" fill="url(#paint4_linear)"/>
<path d="M37.3192 16.4362C37.5306 16.4361 37.7336 16.3534 37.8849 16.2057C38.0361 16.058 38.1237 15.857 38.1288 15.6456L38.1679 14.0244C38.1731 13.8095 38.0927 13.6013 37.9444 13.4457C37.871 13.3687 37.7831 13.3068 37.6858 13.2637C37.5885 13.2207 37.4837 13.1971 37.3773 13.1946C37.1624 13.1894 36.9543 13.2698 36.7986 13.418C36.643 13.5663 36.5527 13.7703 36.5475 13.9852L36.5083 15.6064C36.5057 15.7128 36.5241 15.8186 36.5625 15.9179C36.6008 16.0172 36.6583 16.1079 36.7317 16.1849C36.8051 16.262 36.893 16.3238 36.9903 16.3668C37.0875 16.4099 37.1924 16.4334 37.2987 16.436L37.3192 16.4362Z" fill="url(#paint5_linear)"/>
<path d="M29.7223 17.7572C29.6669 17.848 29.6298 17.9489 29.6134 18.0541C29.5969 18.1592 29.6013 18.2666 29.6264 18.3701C29.6515 18.4735 29.6967 18.571 29.7594 18.657C29.8222 18.743 29.9012 18.8158 29.9921 18.8712L31.3766 19.7157C31.4675 19.7711 31.5683 19.808 31.6735 19.8245C31.7786 19.8409 31.8859 19.8365 31.9893 19.8114C32.0927 19.7864 32.1902 19.7412 32.2761 19.6785C32.3621 19.6157 32.4348 19.5367 32.4902 19.4459C32.5456 19.355 32.5826 19.2542 32.599 19.1491C32.6155 19.0439 32.611 18.9366 32.586 18.8332C32.5609 18.7298 32.5157 18.6323 32.453 18.5464C32.3903 18.4604 32.3113 18.3877 32.2204 18.3323L30.8363 17.4874C30.7455 17.4319 30.6446 17.3949 30.5394 17.3784C30.4343 17.3619 30.3269 17.3664 30.2234 17.3914C30.12 17.4165 30.0225 17.4617 29.9365 17.5244C29.8505 17.5872 29.7777 17.6663 29.7223 17.7572V17.7572Z" fill="url(#paint6_linear)"/>
<path d="M43.6256 24.4952C43.4421 24.3833 43.2217 24.3489 43.0129 24.3995C42.804 24.4501 42.6239 24.5816 42.512 24.765C42.4001 24.9485 42.3656 25.1689 42.4162 25.3777C42.4668 25.5865 42.5983 25.7667 42.7818 25.8786L44.1663 26.7231C44.3497 26.835 44.5701 26.8695 44.779 26.8189C44.9878 26.7683 45.168 26.6368 45.2799 26.4533C45.3918 26.2699 45.4262 26.0495 45.3756 25.8407C45.3251 25.6318 45.1936 25.4516 45.0101 25.3397L43.6256 24.4952Z" fill="url(#paint7_linear)"/>
<path d="M44.0569 17.2199L42.6332 17.9966C42.5389 18.047 42.4555 18.1157 42.3879 18.1985C42.3203 18.2813 42.2697 18.3767 42.2391 18.4792C42.2086 18.5817 42.1986 18.6892 42.2098 18.7956C42.2209 18.9019 42.2531 19.005 42.3043 19.0989C42.3555 19.1928 42.4248 19.2756 42.5082 19.3425C42.5916 19.4095 42.6874 19.4593 42.7901 19.4891C42.8928 19.5188 43.0004 19.5279 43.1067 19.5159C43.2129 19.5039 43.3158 19.4709 43.4092 19.4189L44.833 18.6422C44.9278 18.592 45.0118 18.5235 45.0799 18.4407C45.1481 18.3578 45.1991 18.2623 45.2301 18.1595C45.261 18.0568 45.2712 17.9489 45.2602 17.8422C45.2491 17.7355 45.2169 17.632 45.1655 17.5378C45.1141 17.4437 45.0445 17.3606 44.9608 17.2935C44.877 17.2265 44.7808 17.1767 44.6777 17.1471C44.5745 17.1175 44.4665 17.1087 44.36 17.1212C44.2534 17.1337 44.1504 17.1673 44.0569 17.2199V17.2199Z" fill="url(#paint8_linear)"/>
<path d="M42.2229 13.6067C42.0351 13.5023 41.8135 13.4768 41.6068 13.5358C41.4002 13.5948 41.2255 13.7334 41.1211 13.9212L39.5473 16.7541C39.4942 16.8472 39.4601 16.9499 39.447 17.0562C39.4339 17.1626 39.442 17.2705 39.4709 17.3737C39.4997 17.4769 39.5487 17.5733 39.6151 17.6574C39.6815 17.7415 39.7639 17.8116 39.8576 17.8637C39.9513 17.9157 40.0543 17.9487 40.1608 17.9606C40.2673 17.9725 40.3751 17.9633 40.4779 17.9333C40.5808 17.9033 40.6767 17.8532 40.7601 17.7858C40.8434 17.7185 40.9126 17.6354 40.9636 17.5411L42.5375 14.7083C42.6419 14.5205 42.6674 14.2989 42.6083 14.0923C42.5493 13.8857 42.4107 13.711 42.2229 13.6067Z" fill="url(#paint9_linear)"/>
<path d="M33.6134 14.0453C33.5023 13.8622 33.3233 13.7305 33.1154 13.679C32.9075 13.6276 32.6877 13.6605 32.504 13.7706C32.3204 13.8807 32.1878 14.0591 32.1352 14.2667C32.0827 14.4743 32.1145 14.6943 32.2237 14.8785L33.8901 17.6582C33.9448 17.7494 34.0169 17.829 34.1024 17.8924C34.1879 17.9557 34.285 18.0017 34.3882 18.0275C34.4914 18.0533 34.5987 18.0586 34.704 18.0429C34.8092 18.0273 34.9104 17.9911 35.0016 17.9364C35.0929 17.8817 35.1725 17.8095 35.2358 17.724C35.2992 17.6385 35.3451 17.5414 35.371 17.4382C35.3968 17.335 35.402 17.2277 35.3864 17.1224C35.3708 17.0172 35.3346 16.9161 35.2798 16.8248L33.6134 14.0453Z" fill="url(#paint10_linear)"/>
<path d="M27.7804 22.2661C27.7839 22.4786 27.8708 22.6813 28.0224 22.8303C28.1739 22.9794 28.378 23.0629 28.5906 23.0629H28.6042L31.845 23.0094C31.9514 23.0077 32.0564 22.985 32.154 22.9426C32.2516 22.9003 32.34 22.8392 32.414 22.7627C32.488 22.6862 32.5462 22.5959 32.5853 22.497C32.6244 22.398 32.6436 22.2923 32.6418 22.1859C32.6401 22.0795 32.6174 21.9745 32.5751 21.8769C32.5327 21.7792 32.4716 21.6909 32.3951 21.6169C32.3187 21.5429 32.2284 21.4847 32.1294 21.4456C32.0304 21.4065 31.9247 21.3873 31.8183 21.389L28.5776 21.4425C28.4712 21.4442 28.3661 21.4668 28.2684 21.5091C28.1708 21.5515 28.0824 21.6126 28.0083 21.6891C27.9343 21.7656 27.8761 21.8559 27.837 21.9549C27.7978 22.0539 27.7786 22.1596 27.7804 22.2661V22.2661Z" fill="url(#paint11_linear)"/>
<path d="M47.2223 21.9447C47.2181 21.7301 47.1291 21.5259 46.9748 21.3766C46.8205 21.2274 46.6135 21.1452 46.3989 21.148L43.1581 21.2015C42.9432 21.2032 42.7379 21.2903 42.5872 21.4434C42.4365 21.5966 42.3528 21.8034 42.3545 22.0183C42.3563 22.2331 42.4433 22.4385 42.5965 22.5892C42.7496 22.7399 42.9564 22.8236 43.1713 22.8219H43.185L46.4257 22.7684C46.5321 22.7666 46.6371 22.7439 46.7347 22.7016C46.8323 22.6592 46.9206 22.598 46.9946 22.5216C47.0686 22.4451 47.1268 22.3548 47.1658 22.2558C47.2049 22.1568 47.2241 22.0511 47.2223 21.9447Z" fill="url(#paint12_linear)"/>
<defs>
<linearGradient id="paint0_linear" x1="0" y1="0" x2="89.8264" y2="88.7153" gradientUnits="userSpaceOnUse">
<stop stop-color="#66CDFF"/>
<stop offset="1" stop-color="#2ECC71" stop-opacity="0.75"/>
<stop offset="1" stop-color="#2ECC71"/>
</linearGradient>
<linearGradient id="paint1_linear" x1="37.5" y1="30.209" x2="37.5" y2="61.803" gradientUnits="userSpaceOnUse">
<stop stop-color="white"/>
<stop offset="1" stop-color="white" stop-opacity="0.35"/>
</linearGradient>
<linearGradient id="paint2_linear" x1="31.0176" y1="23.7249" x2="31.0176" y2="35.067" gradientUnits="userSpaceOnUse">
<stop stop-color="white"/>
<stop offset="1" stop-color="white" stop-opacity="0.35"/>
</linearGradient>
<linearGradient id="paint3_linear" x1="53.6785" y1="22.1047" x2="53.6785" y2="27.4211" gradientUnits="userSpaceOnUse">
<stop stop-color="white"/>
<stop offset="1" stop-color="white" stop-opacity="0.35"/>
</linearGradient>
<linearGradient id="paint4_linear" x1="37.5012" y1="18.0559" x2="37.5012" y2="26.1561" gradientUnits="userSpaceOnUse">
<stop stop-color="white"/>
<stop offset="1" stop-color="white" stop-opacity="0.35"/>
</linearGradient>
<linearGradient id="paint5_linear" x1="37.3381" y1="13.1943" x2="37.3381" y2="16.4362" gradientUnits="userSpaceOnUse">
<stop stop-color="white"/>
<stop offset="1" stop-color="white" stop-opacity="0.35"/>
</linearGradient>
<linearGradient id="paint6_linear" x1="31.1062" y1="17.3687" x2="31.1062" y2="19.8342" gradientUnits="userSpaceOnUse">
<stop stop-color="white"/>
<stop offset="1" stop-color="white" stop-opacity="0.35"/>
</linearGradient>
<linearGradient id="paint7_linear" x1="43.8959" y1="24.3767" x2="43.8959" y2="26.8416" gradientUnits="userSpaceOnUse">
<stop stop-color="white"/>
<stop offset="1" stop-color="white" stop-opacity="0.35"/>
</linearGradient>
<linearGradient id="paint8_linear" x1="43.7349" y1="17.1157" x2="43.7349" y2="19.521" gradientUnits="userSpaceOnUse">
<stop stop-color="white"/>
<stop offset="1" stop-color="white" stop-opacity="0.35"/>
</linearGradient>
<linearGradient id="paint9_linear" x1="41.0402" y1="13.5046" x2="41.0402" y2="17.9657" gradientUnits="userSpaceOnUse">
<stop stop-color="white"/>
<stop offset="1" stop-color="white" stop-opacity="0.35"/>
</linearGradient>
<linearGradient id="paint10_linear" x1="33.7528" y1="13.6553" x2="33.7528" y2="18.0517" gradientUnits="userSpaceOnUse">
<stop stop-color="white"/>
<stop offset="1" stop-color="white" stop-opacity="0.35"/>
</linearGradient>
<linearGradient id="paint11_linear" x1="30.2111" y1="21.3889" x2="30.2111" y2="23.0629" gradientUnits="userSpaceOnUse">
<stop stop-color="white"/>
<stop offset="1" stop-color="white" stop-opacity="0.35"/>
</linearGradient>
<linearGradient id="paint12_linear" x1="44.7885" y1="21.1479" x2="44.7885" y2="22.8219" gradientUnits="userSpaceOnUse">
<stop stop-color="white"/>
<stop offset="1" stop-color="white" stop-opacity="0.35"/>
</linearGradient>
</defs>
</svg>
