<svg width="82" height="46" viewBox="0 0 82 46" fill="none" xmlns="http://www.w3.org/2000/svg">
<path d="M26.8 15.9H18.7C18.2 15.9 17.8 15.5 17.8 15V6.9C17.8 6.4 18.2 6 18.7 6H26.8C27.3 6 27.7 6.4 27.7 6.9V15C27.7 15.5 27.3 15.9 26.8 15.9ZM39.6 15V6.9C39.6 6.4 39.2 6 38.7 6H30.6C30.1 6 29.7 6.4 29.7 6.9V15C29.7 15.5 30.1 15.9 30.6 15.9H38.7C39.2 15.9 39.6 15.5 39.6 15ZM51.6 15V6.9C51.6 6.4 51.2 6 50.7 6H42.6C42.1 6 41.7 6.4 41.7 6.9V15C41.7 15.5 42.1 15.9 42.6 15.9H50.7C51.2 15.9 51.6 15.5 51.6 15ZM63.5 15V6.9C63.5 6.4 63.1 6 62.6 6H54.5C54 6 53.6 6.4 53.6 6.9V15C53.6 15.5 54 15.9 54.5 15.9H62.6C63.1 15.9 63.5 15.5 63.5 15ZM75.4 15V6.9C75.4 6.4 75 6 74.5 6H66.4C65.9 6 65.5 6.4 65.5 6.9V15C65.5 15.5 65.9 15.9 66.4 15.9H74.5C75 15.9 75.4 15.5 75.4 15ZM27.7 26.7V18.6C27.7 18.1 27.3 17.7 26.8 17.7H18.7C18.2 17.7 17.8 18.1 17.8 18.6V26.7C17.8 27.2 18.2 27.6 18.7 27.6H26.8C27.3 27.6 27.7 27.2 27.7 26.7ZM15.7 15V6.9C15.7 6.4 15.3 6 14.8 6H6.7C6.2 6 5.8 6.4 5.8 6.9V15C5.8 15.5 6.2 15.9 6.7 15.9H14.8C15.3 15.9 15.7 15.5 15.7 15ZM15.7 26.7V18.6C15.7 18.1 15.3 17.7 14.8 17.7H6.7C6.2 17.7 5.8 18.1 5.8 18.6V26.7C5.8 27.2 6.2 27.6 6.7 27.6H14.8C15.3 27.6 15.7 27.2 15.7 26.7ZM39.6 26.7V18.6C39.6 18.1 39.2 17.7 38.7 17.7H30.6C30.1 17.7 29.7 18.1 29.7 18.6V26.7C29.7 27.2 30.1 27.6 30.6 27.6H38.7C39.2 27.6 39.6 27.2 39.6 26.7ZM51.6 26.7V18.6C51.6 18.1 51.2 17.7 50.7 17.7H42.6C42.1 17.7 41.7 18.1 41.7 18.6V26.7C41.7 27.2 42.1 27.6 42.6 27.6H50.7C51.2 27.6 51.6 27.2 51.6 26.7ZM63.5 26.7V18.6C63.5 18.1 63.1 17.7 62.6 17.7H54.5C54 17.7 53.6 18.1 53.6 18.6V26.7C53.6 27.2 54 27.6 54.5 27.6H62.6C63.1 27.6 63.5 27.2 63.5 26.7ZM75.4 26.7V18.6C75.4 18.1 75 17.7 74.5 17.7H66.4C65.9 17.7 65.5 18.1 65.5 18.6V26.7C65.5 27.2 65.9 27.6 66.4 27.6H74.5C75 27.6 75.4 27.2 75.4 26.7ZM61.5 38.1V30.7C61.5 30 60.9 29.4 60.2 29.4H20.9C20.2 29.4 19.6 30 19.6 30.7V38.1C19.6 38.8 20.2 39.4 20.9 39.4H60.3C61 39.4 61.5 38.8 61.5 38.1ZM7.1 39.4H17.1C17.8 39.4 18.4 38.8 18.4 38.1V30.7C18.4 30 17.8 29.4 17.1 29.4H7.1C6.4 29.4 5.8 30 5.8 30.7V38.1C5.8 38.8 6.4 39.4 7.1 39.4ZM64.2 39.4H74.2C74.9 39.4 75.5 38.8 75.5 38.1V30.7C75.5 30 74.9 29.4 74.2 29.4H64.2C63.5 29.4 62.9 30 62.9 30.7V38.1C62.9 38.8 63.5 39.4 64.2 39.4ZM81.4 37.9V7.1C81.4 3.2 78.2 0 74.3 0H7.1C3.2 0 0 3.2 0 7.1V38C0 41.9 3.2 45.1 7.1 45.1H74.3C78.2 45 81.4 41.8 81.4 37.9ZM74.8 3.6C76.4 3.6 77.7 4.9 77.7 6.5V38.4C77.7 40 76.4 41.3 74.8 41.3H6.6C5 41.3 3.7 40 3.7 38.4V6.6C3.7 5 5 3.7 6.6 3.7H74.8V3.6Z" fill="#00B0FF"/>
</svg>
